<?xml version="1.0" encoding="UTF-8"?>
<!-- Generator: Adobe Illustrator 24.2.3, SVG Export Plug-In . SVG Version: 6.00 Build 0)  -->
<svg xmlns="http://www.w3.org/2000/svg" xmlns:xlink="http://www.w3.org/1999/xlink" version="1.1" id="Layer_1" x="0px" y="0px" viewBox="0 0 12705 6000" style="enable-background:new 0 0 12705 6000;" xml:space="preserve">
<style type="text/css">
	.st0{fill:#0050D2;}
	.st1{fill:#FA5A32;}
</style>
<g>
	<path class="st0" d="M2037.5,1518.1h-738.1l7.7,169.1c76.9,1157.1,976.4,1541.5,976.4,2464V4701h730.4v-588.1   C3029.3,2825.1,2114.4,2690.5,2037.5,1518.1 M4328.6,1518.1c-76.9,1172.4-991.8,1307-976.4,2594.7V4701h730.4v-549.7   c0-922.6,899.5-1307,976.4-2460.2l7.7-173H4328.6z"></path>
	<rect x="10455.5" y="2280.4" class="st0" width="673.8" height="2420.6"></rect>
	<path class="st0" d="M9004.5,3358.5h-393.9v-549.4h388.8c181.4,0,347.3,62.2,347.3,274.7   C9346.6,3223.7,9263.7,3358.5,9004.5,3358.5 M9616.2,3633.2v-10.4c217.7-72.6,409.5-290.3,409.5-616.8c0-368-248.8-725.7-876-725.7   H7936.8V4701h673.8v-813.8H8906c217.7,0,311,15.6,368,243.6l140,570.2h710.1v-77.7c-62.2-140-129.6-352.5-171-513.1   C9875.3,3809.4,9792.4,3685.1,9616.2,3633.2"></path>
	<polygon class="st0" points="5853.5,2280.4 5853.5,4701 6527.3,4701 6527.3,3809.5 7496.6,3809.5 7496.6,3291.1 6527.3,3291.1    6527.3,2845.3 7610.7,2845.3 7610.7,2280.4  "></polygon>
	<g>
		<path class="st1" d="M3183.1,2598.3c361.3,0,649.6-288.3,649.6-649.6c0-361.3-288.3-649.6-649.6-649.6s-649.6,288.3-649.6,649.6    C2533.4,2310,2821.7,2598.3,3183.1,2598.3"></path>
	</g>
	<polygon class="st0" points="10660.9,1518.9 10455.4,1989.9 10455.4,2083.1 11019.8,2083.1 11405.6,1518.9  "></polygon>
</g>
</svg>
